<svg id="Layer_1" data-name="Layer 1" xmlns="http://www.w3.org/2000/svg" viewBox="0 0 596.8 76.35"><defs><style>.cls-1{fill:#ff3826;}.cls-2{fill:#52555b;} svg { cursor: pointer; } /* whole rectangle */ </style></defs><path class="cls-1" d="M97.66,344.18c0-.25-.06-.49-.06-.73v-24.9c.22.19.34.28.45.39l24.78,24.76a3.48,3.48,0,0,1,.38.48Z" transform="translate(-97.6 -267.82)"/><path class="cls-1" d="M132.45,344.18a3.64,3.64,0,0,1,.36-.49L157.55,319l.45-.4v25.61Z" transform="translate(-97.6 -267.82)"/><path class="cls-2" d="M596.48,295.62q-9.63,12.61-19.3,25.3c-6.47-8.47-12.9-16.89-19.45-25.45,0,.43-.05.69-.05.95v46c0,1.12.09,1-1,1-1.9,0-3.79,0-5.69,0-.47,0-.64-.12-.64-.63q0-28.86,0-57.73c0-.17,0-.34,0-.56l.61,0c2.23,0,4.47,0,6.7,0a1,1,0,0,1,.89.43q9.11,11.94,18.23,23.86l.39.49c.15-.18.28-.32.4-.48q9.1-11.92,18.21-23.87a1,1,0,0,1,.88-.43c2.23,0,4.46,0,6.7,0H604c0,.23,0,.43,0,.63q0,28.81,0,57.62c0,.53-.12.71-.68.7q-3,0-6,0c-.59,0-.7-.18-.7-.73q0-23.16,0-46.32v-.72Zm-376.26,36c-.22-.27-.35-.42-.47-.58l-8.07-11.29q-12.42-17.42-24.84-34.82a.9.9,0,0,0-.83-.43c-2,0-4.09,0-6.13,0-.54,0-.7.14-.7.68q0,28.79,0,57.57c0,.59.21.72.75.71,1.88,0,3.75,0,5.63,0,1.15,0,1,.08,1-1V297.63a.88.88,0,0,1,.42.33l3.33,4.67L219,342.85a1.21,1.21,0,0,0,1.15.59q3.41,0,6.81,0c.54,0,.68-.16.68-.69q0-28.81,0-57.62v-.61h-7.4Zm238.47-46.5q0,28.83,0,57.67c0,.57.2.68.71.67,2,0,4,0,6,0,.71,0,.71,0,.71-.75V324.13c2.2,0,4.3,0,6.4,0a.92.92,0,0,1,.9.49q5.89,9.19,11.82,18.38a.84.84,0,0,0,.81.45c2.44,0,4.88,0,7.32,0a6.18,6.18,0,0,0,.64-.07c-4.42-6.84-8.78-13.57-13.15-20.31.7-.3,1.33-.52,1.92-.83a21.15,21.15,0,0,0,5.53-4.47,18.82,18.82,0,0,0,4.84-18.27c-1.61-6.61-6-11-12.16-13.63a17.8,17.8,0,0,0-7.23-1.38c-4.76.07-9.53,0-14.29,0h-.7C458.71,284.73,458.69,284.92,458.69,285.1Zm7.38,31.9V291.6c0-.72,0-.73.74-.72,2.53,0,5.07,0,7.59.09a12.26,12.26,0,0,1,7.78,3.48c5.44,4.9,5.47,14.2.48,19.21a12.72,12.72,0,0,1-9.26,4h-6.92c-.11,0-.22,0-.41,0Zm-126,5.37a20.23,20.23,0,0,0,5.56-4.34,18.91,18.91,0,0,0,5.06-18.77c-1.5-6-5.41-10.16-10.89-12.88a16.41,16.41,0,0,0-7.17-1.88c-5.17,0-10.35,0-15.53,0-.77,0-.77,0-.77.76v57.4c0,.78,0,.78.78.78H323c.73,0,.73,0,.73-.75,0-6,0-11.92,0-17.88,0-.54.15-.69.69-.68,1.91,0,3.83,0,5.74,0a.94.94,0,0,1,.9.5q5.88,9.15,11.76,18.29a1,1,0,0,0,.95.53c2.42,0,4.84,0,7.26,0,.17,0,.35,0,.64,0L338.43,323C339,322.79,339.56,322.61,340.06,322.37Zm-15.84-4.66c-.41,0-.55-.12-.55-.54q0-12.87,0-25.74c0-.34,0-.56.48-.56,2.58,0,5.17,0,7.76.09a12,12,0,0,1,8,3.66,13.58,13.58,0,0,1-5.56,22.6,21.07,21.07,0,0,1-3.66.48c-.85.07-1.72,0-2.58,0ZM546,342.57l-8.6-23.73q-6.14-16.9-12.25-33.8a.69.69,0,0,0-.79-.56c-1.79,0-3.57,0-5.35,0a.61.61,0,0,0-.68.48Q507.66,313.91,497,342.84c-.06.16-.11.33-.18.53a2.54,2.54,0,0,0,.35.06c2.31,0,4.62,0,6.92,0,.4,0,.49-.24.6-.53q4.32-11.69,8.63-23.36a.82.82,0,0,1,.92-.64q7.32,0,14.64,0a1,1,0,0,1,1.06.77q4.18,11.61,8.41,23.2a.72.72,0,0,0,.8.57c2.08,0,4.17,0,6.25,0h.81C546.12,343.06,546,342.82,546,342.57ZM521.59,297h.14c1.86,5.15,3.72,10.3,5.62,15.53H515.93C517.84,307.3,519.72,302.15,521.59,297ZM275,285.09q0,28.83,0,57.68c0,.5.12.67.65.67h30.79c.5,0,.69-.14.68-.67,0-1.61,0-3.22,0-4.83,0-.89,0-.89-.89-.89H283.26c-.29,0-.58,0-.88,0V317.16h23.93c.75,0,.75,0,.75-.72v-4.89c0-.77,0-.77-.77-.77H283.1c-.76,0-.76,0-.76-.77V291.63c0-.77,0-.77.76-.77,7.77,0,15.53,0,23.3,0,.52,0,.68-.14.67-.66,0-1.66,0-3.33,0-5,0-.72,0-.72-.75-.72H275Zm142.4.33v57a4.34,4.34,0,0,1,0,.51c0,.36.12.5.49.49h30.85c.73,0,.73,0,.73-.74v-4.83c0-.81,0-.81-.83-.81h-23c-.28,0-.55,0-.82,0V317.16h24.63v-6.38H425.49c-.77,0-.77,0-.77-.76q0-9.19,0-18.38c0-.24,0-.48,0-.79h24.63v-6.33h-32Zm263.15,7c-1-.8-2-1.64-3-2.4A30.8,30.8,0,0,0,651,284.76a28.67,28.67,0,0,0-14.31,8.58c-7.17,7.61-9.56,16.63-7.66,26.8,1.3,7,5,12.53,10.42,17.06a28.63,28.63,0,0,0,15.46,6.65,32.39,32.39,0,0,0,10.62-.44,33.19,33.19,0,0,0,14.35-7.36c.37-.31.72-.64,1.12-1l-5-4.47c-1.71,1.21-3.3,2.48-5,3.54-6.27,3.85-13,4.76-19.87,2.11-10.67-4.11-17.15-14.81-14.77-27.25a22.71,22.71,0,0,1,8.09-13.38,21.81,21.81,0,0,1,19.17-4.85,25.56,25.56,0,0,1,11,5.59l1.3,1.06,5.16-4.59C680.81,292.68,680.65,292.57,680.51,292.45Zm-271.9-.88c-5.68-4.71-12.09-7.57-19.56-7.77a31.29,31.29,0,0,0-13.17,2.37c-8.25,3.48-17.15,12.55-18.21,24.54a31.27,31.27,0,0,0,.68,10.48c2.14,8.56,7.33,14.82,14.87,19.22A27.77,27.77,0,0,0,385,344a31,31,0,0,0,23.15-7.19c.66-.53,1.3-1.11,2-1.69l-5-4.47c-1.79,1.26-3.45,2.56-5.24,3.65a22.35,22.35,0,0,1-27.94-3.39c-6.52-6.57-8.22-14.49-6.13-23.29,1.29-5.46,4.57-9.67,9-13A21.81,21.81,0,0,1,391,290.44a23.34,23.34,0,0,1,10.47,4.24c1.21.84,2.36,1.77,3.58,2.7l5.09-4.53C409.57,292.4,409.1,292,408.61,291.57Zm-153.73,0c0-.57.16-.72.72-.72,4.26,0,8.52,0,12.78,0,.5,0,.64-.14.64-.63,0-1.71,0-3.41,0-5.12,0-.46-.11-.64-.63-.64H234.06c-.46,0-.62.12-.61.6,0,1.72,0,3.44,0,5.17,0,.5.16.62.64.62,4.24,0,8.48,0,12.72,0,.78,0,.78,0,.78.8v51c0,.74,0,.74.74.74h5.8c.76,0,.76,0,.76-.77V317.19Q254.89,304.38,254.88,291.56Zm-92.62-6.49q0,28.86,0,57.73c0,.55.2.64.68.64,2,0,4,0,6,0,.59,0,.71-.18.71-.73q0-28.79,0-57.56v-.63h-7.38Zm450.66.25v57.21c0,.9,0,.9.92.9,1.93,0,3.86,0,5.8,0,.48,0,.7-.15.64-.64a2.67,2.67,0,0,1,0-.4V285.47a3.38,3.38,0,0,1,0-.45c0-.42-.13-.54-.55-.54-2.1,0-4.2,0-6.3,0l-.51,0Z" transform="translate(-97.6 -267.82)"/><path class="cls-1" d="M97.65,283.82H123L97.65,309.16Z" transform="translate(-97.6 -267.82)"/><path class="cls-1" d="M157.84,309.37l-25.52-25.52H158v25.44Z" transform="translate(-97.6 -267.82)"/><path class="cls-2" d="M128,309.73l-11.16-11.15L128,287.43l11.16,11.14Z" transform="translate(-97.6 -267.82)"/><path class="cls-2" d="M101.31,314l11.16-11.14L123.64,314l-11.15,11.14Z" transform="translate(-97.6 -267.82)"/><path class="cls-2" d="M154.61,314l-11.13,11.11L132.32,314l11.13-11.12Z" transform="translate(-97.6 -267.82)"/><path class="cls-2" d="M128,318.33l11.1,11.08c-3.7,3.7-7.44,7.44-11.16,11.14l-11.09-11.08Z" transform="translate(-97.6 -267.82)"/><path class="cls-2" d="M678.75,275.8a7.83,7.83,0,1,1,15.65,0,7.83,7.83,0,1,1-15.65,0Zm7.81,6.79a6.82,6.82,0,1,0-6.7-6.83A6.83,6.83,0,0,0,686.56,282.59Zm-1.5-2.89c-.21,0-.33,0-.46,0h-.94c0-.2,0-.36,0-.52,0-2.42,0-4.84,0-7.25,0-.43.1-.61.56-.59,1.05,0,2.1,0,3.14.07a2.49,2.49,0,0,1,2.25,3.53,2.17,2.17,0,0,1-.53.71,4.4,4.4,0,0,1-.73.49c.26.59.5,1.17.75,1.75l.74,1.81c-.52,0-1,0-1.43,0-.12,0-.27-.24-.33-.39-.32-.84-.64-1.68-.93-2.52a.6.6,0,0,0-.65-.47c-1.39,0-1.39,0-1.39,1.39Zm1.17-4.67a6.68,6.68,0,0,0,1,0,1.09,1.09,0,0,0,1-1.06,1.06,1.06,0,0,0-.92-1.1,7,7,0,0,0-1.12-.08c-1.27,0-1.11-.16-1.11,1.08S685.06,275.05,686.23,275Z" transform="translate(-97.6 -267.82)"/></svg>