<svg id="Layer_1" data-name="Layer 1" xmlns="http://www.w3.org/2000/svg" viewBox="0 0 482.49 151.18"><defs><style>.cls-1{fill:#1b4478;} svg { cursor: pointer; } /* whole rectangle */ </style></defs><path class="cls-1" d="M167.58,295.23v38.3q0,7.13,2.67,10.51,2.85,3.21,9.08,3.2,6.06,0,9.09-3.2,2.85-3.21,2.85-10.51v-38.3h12.65V335q0,11.42-6.42,17.28-5.88,5.88-18.17,5.88t-18.16-5.88q-6.42-5.88-6.42-17.28V302a6.66,6.66,0,0,1,1.79-4.63,6.06,6.06,0,0,1,4.63-2.14Zm79.15,33.66q0-12.45-6.59-16.56a26.78,26.78,0,0,0-14.42-4.09,28.09,28.09,0,0,0-14.08,4.45q-6.22,4.1-6.23,16.2v27.79h12.47V326.4c0-2.85.83-4.92,2.49-6.23a9.27,9.27,0,0,1,11.4,0c1.78,1.31,2.67,3.38,2.67,6.23v24.22a5.56,5.56,0,0,0,6.06,6.06h6.23Zm3-23.68h12.47v-3.74a6.08,6.08,0,0,0-6.06-6.06h-6.41Zm0,51.47h12.47V315.36a6.08,6.08,0,0,0-6.06-6.05h-6.41Zm58.95-47.37h-9.26q-4.27,0-5.7,4.27l-8.37,29-9.44-33.3H262.76l16.57,47.37H292Zm13.72,18.88a10.25,10.25,0,0,1,2.67-7.13,8.68,8.68,0,0,1,6.41-2.49,8.55,8.55,0,0,1,6.59,2.49c1.43,1.55,2.26,3.92,2.5,7.13H322.43m21.37,13.89a5.74,5.74,0,0,0-3.38.89,4,4,0,0,0-1.25,1.42l-1.07,1.07a2,2,0,0,1-.89.53,10,10,0,0,1-5.16,1.25q-4.64,0-6.95-2.85-2.49-2.67-2.67-8.19h30.81a3,3,0,0,0,.18-1.25V333q0-11.76-5.7-18.35-5.88-6.42-16.56-6.41-10.16,0-15.86,6.59-5.52,6.41-5.52,17.81,0,11.94,5.7,18.34,5.7,6.6,15.85,6.59,8.39,0,13.9-4.09a19.51,19.51,0,0,0,7.48-11.4H343.8m24.05,14.6v-24.4q0-5.34,2.49-7.83c1.66-1.67,4.22-2.5,7.66-2.5h4.1V309.31h-1.79a36.12,36.12,0,0,0-9.43,1.24,22.07,22.07,0,0,0-7.84,3.92,19.84,19.84,0,0,0-5.7,7.66,29.75,29.75,0,0,0-2,11.58v23Zm14.42-15.14q0,7.84,5.17,11.94,5,4.09,15.14,4.09,10.68,0,16-3.92,5.7-4.27,5.7-12.11a11.18,11.18,0,0,0-3.39-8.54q-3.56-3-12.64-5.35a8.15,8.15,0,0,1-1.6-.18c-.48-.12-1.07-.29-1.78-.53q-9.27-2-9.27-4.81a3.6,3.6,0,0,1,1.61-3.21,10.61,10.61,0,0,1,5.34-1.06,9.61,9.61,0,0,1,5.88,1.6c.47.47.94,1,1.42,1.42a5.67,5.67,0,0,0,5.17,3h7.66a15.67,15.67,0,0,0-5.53-11.58q-5.52-4.09-14.78-4.09-8.55,0-13.89,4.09a14.17,14.17,0,0,0-5.16,11.22,10.93,10.93,0,0,0,3.55,8.55q3.21,3.21,12.65,5.52a34,34,0,0,0,4.81,1.07q7.49,1.6,7.48,4.81a3.78,3.78,0,0,1-2.14,3.39,11.48,11.48,0,0,1-5.52,1.24,12.62,12.62,0,0,1-7.12-1.78,6.57,6.57,0,0,1-2.67-5.34H382.27Zm74.28,13.18A15.45,15.45,0,0,0,462.6,349c1.79-2.74,2.67-6.47,2.67-11.23V321.6a11.45,11.45,0,0,0-5.16-10q-5-3.37-15-3.38-8.91,0-13.72,4.09a13.69,13.69,0,0,0-5,9.08h11.93a4.85,4.85,0,0,1,2.85-2.66,12.86,12.86,0,0,1,4.45-.72,15.91,15.91,0,0,1,5,.89,3.28,3.28,0,0,1,2.85,3.39c0,2.37-2.61,3.92-7.84,4.62a19.85,19.85,0,0,0-2.85.54,15.24,15.24,0,0,1-2.14.18,25.8,25.8,0,0,0-11.21,4.27q-4.28,3.21-4.28,10.69c0,5.35,1.6,9.2,4.81,11.58a18.94,18.94,0,0,0,11.22,3.38,58.39,58.39,0,0,0,7.31-.53,20.86,20.86,0,0,0,8-2.32m-2.85-17.45A9.87,9.87,0,0,1,443,348a6.75,6.75,0,0,1-4.63-1.43,5.76,5.76,0,0,1-1.6-4.27,7.31,7.31,0,0,1,1.24-3.93,10.72,10.72,0,0,1,4.63-2.31l4.1-.89a33.72,33.72,0,0,0,6.95-2.31Zm13.89,19.41h12.47V301.29a5.3,5.3,0,0,0-1.78-4.1,5.88,5.88,0,0,0-4.28-1.78h-6.41Zm26.18-28.49a10.25,10.25,0,0,1,2.67-7.13,8.7,8.7,0,0,1,6.42-2.49,8.56,8.56,0,0,1,6.59,2.49c1.42,1.55,2.25,3.92,2.49,7.13H493.77m21.37,13.89a5.74,5.74,0,0,0-3.38.89,4,4,0,0,0-1.24,1.42l-1.07,1.07a2.16,2.16,0,0,1-.89.53,10,10,0,0,1-5.17,1.25q-4.62,0-6.95-2.85-2.49-2.67-2.67-8.19h30.82a3.22,3.22,0,0,0,.18-1.25V333q0-11.76-5.7-18.35c-3.93-4.28-9.44-6.41-16.57-6.41q-10.15,0-15.85,6.59-5.52,6.41-5.52,17.81,0,11.94,5.7,18.34,5.7,6.6,15.85,6.59,8.37,0,13.89-4.09a19.46,19.46,0,0,0,7.48-11.4h-8.91m10.51-.54c0,5.23,1.72,9.21,5.17,11.94s8.37,4.09,15.14,4.09q10.68,0,16-3.92,5.7-4.27,5.7-12.11a11.21,11.21,0,0,0-3.38-8.54q-3.57-3-12.65-5.35a8.15,8.15,0,0,1-1.6-.18c-.48-.12-1.07-.29-1.78-.53q-9.27-2-9.26-4.81a3.59,3.59,0,0,1,1.6-3.21,10.59,10.59,0,0,1,5.34-1.06,9.61,9.61,0,0,1,5.88,1.6l1.42,1.42a5.67,5.67,0,0,0,5.17,3h7.66a15.67,15.67,0,0,0-5.53-11.58c-3.67-2.73-8.61-4.09-14.78-4.09q-8.55,0-13.89,4.09a14.2,14.2,0,0,0-5.16,11.22,10.9,10.9,0,0,0,3.56,8.55q3.19,3.21,12.64,5.52a34,34,0,0,0,4.81,1.07q7.49,1.6,7.48,4.81a3.78,3.78,0,0,1-2.14,3.39,11.48,11.48,0,0,1-5.52,1.24,12.62,12.62,0,0,1-7.12-1.78,6.57,6.57,0,0,1-2.67-5.34H525.65Z" transform="translate(-154.75 -230.41)"/><path class="cls-1" d="M490.2,305.56c0-.5.09-1,.14-1.52a30.17,30.17,0,0,1,2.42-7.58c2.79-4.89,8.59-11.91,20.09-16.35,13.27-4.75,32-5.74,51.9-1A89.32,89.32,0,0,1,591,290.22a111.3,111.3,0,0,1-1.32,20.94c-14.52-13.24-37.35-26-68.48-22.88-13.44,1.33-21.67,5.29-26.46,10.5a14.16,14.16,0,0,0-4.57,6.78m101.52,24.1c.45-1.31.86-2.61,1.26-3.89a60.57,60.57,0,0,1,9,17.56,79.78,79.78,0,0,1-13.55,19.31,63,63,0,0,1-14.24,10.5,33.88,33.88,0,0,1-11.77,3.29c-1.94.14-3.89.21-5.83.19A53.35,53.35,0,0,0,570.09,366c8.11-8.1,16.08-20.11,21.63-36.34m3.63-12.92c.57-2.62,1.06-5.2,1.44-7.71.16-1.07.32-2.13.45-3.19.47-3.73.75-7.32.88-10.71a82.41,82.41,0,0,1,13.36,12.8,97.72,97.72,0,0,1-4.71,24.16,80.85,80.85,0,0,0-11.42-15.35m14.43,23.34a91.16,91.16,0,0,0,6-17c.62-2.3,1.14-4.6,1.59-6.88a61.12,61.12,0,0,1,5,10.07c-2.15,9.8-8.11,20.23-10.74,24l-.11.15a66.64,66.64,0,0,0-1.69-10.28m8.5-53.05c-.06-.79-.13-1.58-.21-2.38l.41.44a68.6,68.6,0,0,1,5.4,24c-1.57-2-3.23-4-4.94-5.88m-7.41-7.5c-5.53-5.13-10.65-8.93-13.38-10.21l-.07,0a86.89,86.89,0,0,0-2.49-17.73,86.79,86.79,0,0,1,12.35,7.73,79.33,79.33,0,0,1,2.08,7.76,101.42,101.42,0,0,1,1.51,12.49m-21.22-14.42c-10.28-5.47-27.25-12.9-54.73-10.43a84.16,84.16,0,0,0-13.77,2.33c-12.48,3.14-22.19,8.85-26.95,15.87-.51.63-1,1.23-1.34,1.78A36.8,36.8,0,0,1,503.57,274a64.33,64.33,0,0,1,19.07-11.36c9.24-3.31,20.22-5,32.42-5.09,2.13.06,4.34.2,6.61.4A103,103,0,0,1,578.89,261c2.34.69,4.65,1.47,6.91,2.33a82.34,82.34,0,0,1,4.51,17.93m-10.7-29.61c-10.25-1.26-19.36-2.15-24.56-1.59-16.89,1.82-34.85,6-50.25,18.89a67.34,67.34,0,0,1,20.81-17.22,68.87,68.87,0,0,1,51.32-4.27c.41.51.83,1.05,1.29,1.66a25.59,25.59,0,0,1,1.39,2.53m-91,60.65,0,.26c0,.17,0,.34,0,.51a21.55,21.55,0,0,0,.88,4.3,3,3,0,0,0,.48,1h.07a6.37,6.37,0,0,0-.14-2,21.76,21.76,0,0,1,.05-5.67v0a19.53,19.53,0,0,1,5.94-9.5c5.27-4.25,13.23-6.48,22.51-7.88.8-.13,1.63-.23,2.48-.32h.15a98.13,98.13,0,0,1,17.69.65A91.54,91.54,0,0,1,566.44,303a78.22,78.22,0,0,1,8.33,5.05A100.84,100.84,0,0,1,588,319.87l0,.06q-1,4.47-2.45,9c-6.83,20-17.2,34.47-27.46,41.53A38.8,38.8,0,0,1,547.9,375a16.83,16.83,0,0,1-3.64.3,22.1,22.1,0,0,1-3.66-.11c-3.13-.33-2.76,2.9-.52,3.51l2.31.68c2.15.55,4.31,1,6.49,1.37a71.66,71.66,0,0,0,56.24-15.09c.61,6,1.88,7.74,4.56,2.21a23.66,23.66,0,0,0,1.87-8,71.66,71.66,0,0,0,15.09-22.5c2.18,7.31,3.17,12.12,6.94-2,1.15-4.33.12-9.3-2.22-14.39a71.34,71.34,0,0,0,.89-13.78c0-1.76-.17-3.49-.34-5.21,4.11,5.39,9.24,9.9.76-15.09a43.86,43.86,0,0,0-15.16-21.1c-1.34-1.75-2.77-3.45-4.27-5.07-2.66-7.78-6.44-14.33-11.72-17.66-10.27-6.49-10.47-3.1-7.5,2.89a71.47,71.47,0,0,0-9.43-4.14c-3.31-5-7.47-9.22-12.65-10.7-9.05-2.58-6.65,2.26-2.82,7.08a73.39,73.39,0,0,0-10.74-.46,71.64,71.64,0,0,0-59.65,35.39,74.19,74.19,0,0,0-9.6,26,55.19,55.19,0,0,0-.56,13.18" transform="translate(-154.75 -230.41)"/></svg>