<svg id="Layer_1" data-name="Layer 1" xmlns="http://www.w3.org/2000/svg" viewBox="0 0 525.45 132.53"><defs><style>.cls-1{fill:#20221d;}.cls-2{fill:#2e4e92;} svg { cursor: pointer; } /* whole rectangle */ </style></defs><path class="cls-1" d="M303.84,266.2c1,0,1.92-.05,2.88,0,.24,0,.56.39.67.67q4.07,9.75,8.09,19.51,9.27,22.38,18.56,44.75c.86,2,1.88,4,2.93,6a11.57,11.57,0,0,0,9.54,6.36c.81.08,1.61.23,2.44.35V345H311V344c1.45-.26,2.88-.44,4.28-.76,5-1.15,7.35-4.89,6.05-9.85a55.51,55.51,0,0,0-2.23-6.3c-1.72-4.37-3.51-8.71-5.25-13.07-.19-.48-.39-.7-1-.7-8,0-16,0-24.06,0a1.05,1.05,0,0,0-.83.45c-2,5.09-3.94,10.17-5.76,15.31a19.54,19.54,0,0,0-1.07,5.39c-.26,4.67,2.5,8.09,7.09,9.08.68.15,1.38.25,2.12.38V345H264.55v-1.05c.87-.16,1.74-.27,2.59-.48a11.49,11.49,0,0,0,5.81-3.64,32.38,32.38,0,0,0,6-9.91q5.68-14.22,11.23-28.49C294.62,290,299,278.49,303.49,267c.1-.26.22-.51.35-.81M289.11,311h23.51c-4-9.94-8-19.81-12.1-29.91-3.85,10.11-7.62,20-11.41,29.91" transform="translate(-133.27 -239.74)"/><path class="cls-1" d="M342.62,267.7v-1.34L360.36,264v38.11a2.73,2.73,0,0,0,.4-.36,17.44,17.44,0,0,1,12.83-6.58,23,23,0,0,1,23,12.9,29,29,0,0,1,2.37,14.08,26.38,26.38,0,0,1-3.14,11.79,22.58,22.58,0,0,1-17.26,11.83,27.91,27.91,0,0,1-15.95-2,14.75,14.75,0,0,0-2.32-.79,3.64,3.64,0,0,0-3.76,1,16.73,16.73,0,0,0-2.15,2.93,1.19,1.19,0,0,1-1.31.75,14.27,14.27,0,0,0-1.48,0v-1.1q0-33.61,0-67.21a27,27,0,0,0-.52-5.14c-.83-4.15-3.24-6.15-7.49-6.41l-.9-.05M360.36,320a74.82,74.82,0,0,0,1.4,15.44,11.68,11.68,0,0,0,3.75,7c4,3.35,10.25,3.41,14.75.1a18.46,18.46,0,0,0,6.15-8.19,35.29,35.29,0,0,0,.76-24.1,22.06,22.06,0,0,0-6.58-10.42c-5-4.39-11.52-4.1-15.86.66a13.68,13.68,0,0,0-3.13,6.14A55.89,55.89,0,0,0,360.36,320" transform="translate(-133.27 -239.74)"/><path class="cls-1" d="M461.17,346.09c-9.11-.22-17.52-5-22.62-14.88-4.68-9.1-3-19.22,4.15-26.95a26.62,26.62,0,0,1,16.21-8.85c9.84-1.37,18.09,1.7,24.76,9a23.57,23.57,0,0,1,6.5,17.33,23.82,23.82,0,0,1-6.7,15.56c-5.47,5.95-12.31,8.76-22.3,8.76m-14.59-25.2a32.4,32.4,0,0,0,1.07,8.21,24.08,24.08,0,0,0,7.48,12.66,12.18,12.18,0,0,0,15.57.61,15.35,15.35,0,0,0,4.64-5.24,32.89,32.89,0,0,0,2.32-27.53,22.39,22.39,0,0,0-6.49-10.09A12.28,12.28,0,0,0,458.64,297a14.35,14.35,0,0,0-6.77,5.47c-3.87,5.21-5.3,11.17-5.29,18.42" transform="translate(-133.27 -239.74)"/><path class="cls-1" d="M571.16,313.58c-.73,7.21.26,13.95,3.94,20.11a18.32,18.32,0,0,0,21.42,7.85c4.19-1.48,6.67-4.49,8.08-8.56.11-.32.23-.63.37-1l1.26.41c-.24.82-.43,1.6-.69,2.37a15.53,15.53,0,0,1-11.9,10.52,30.92,30.92,0,0,1-17.67-.84c-8.06-2.9-12.74-8.9-14.51-17.14A27.44,27.44,0,0,1,563,309.74c3.89-8.5,10.63-13.32,19.91-14.49A21.17,21.17,0,0,1,595,297.1a16.92,16.92,0,0,1,10,14.6c0,.59.07,1.18.12,1.88Zm25.15-2.21c-.33-4.16-.93-8.16-3.85-11.37a10.47,10.47,0,0,0-8.33-3.7,9.44,9.44,0,0,0-5,1.5c-4.88,3.19-6.95,8-7.66,13.57Z" transform="translate(-133.27 -239.74)"/><path class="cls-1" d="M505,295.07c.35,2.92.68,5.72,1,8.57.26-.38.52-.76.77-1.15,4.15-6.51,12.46-8.25,17.63-7.07a5.89,5.89,0,0,1,3.88,2.67,4.08,4.08,0,0,1-.5,5.08,4.13,4.13,0,0,1-5.18.16,16.38,16.38,0,0,1-1.58-1.54,23.13,23.13,0,0,0-2.24-2.19,5.85,5.85,0,0,0-8.59,1.34,18,18,0,0,0-3,8.48,67.66,67.66,0,0,0-.55,7.78c-.07,5.64,0,11.27,0,16.91a25.82,25.82,0,0,0,.32,3.72,5.85,5.85,0,0,0,3.71,4.81c1.3.54,2.67.89,4.08,1.34v1H489.36V343.9c.58-.11,1.17-.24,1.77-.34,3.71-.59,5.78-2.19,6.31-6.89a68.76,68.76,0,0,0,.37-7.46q.06-9.94,0-19.88a31.73,31.73,0,0,0-.34-4.57c-.44-2.89-2.11-6-6.36-6.32-.33,0-.67-.09-1.05-.15v-1.17L505,295.07" transform="translate(-133.27 -239.74)"/><path class="cls-1" d="M535.44,298H529c.33-.46.46-.9.72-1,4.87-1.87,8-5.51,10.21-10.06a37.88,37.88,0,0,0,1.82-5c.23-.73.5-1.14,1.32-1a6.73,6.73,0,0,0,1.11,0v15h14.64V298H544.25v1c0,10.82,0,21.64,0,32.46a27.61,27.61,0,0,0,.62,5.8c1.15,5.28,5.85,6.63,9.42,6.23a8.36,8.36,0,0,0,5.57-3.26c.42-.5.82-1,1.29-1.57l1,.72c-.83,1-1.55,2-2.42,2.95a11.55,11.55,0,0,1-5.52,3,24.82,24.82,0,0,1-12,.07l-.33-.09c-4.12-1.22-6-3.56-6.28-7.83-.08-1.38-.13-2.77-.13-4.16q0-17.08,0-34.16Z" transform="translate(-133.27 -239.74)"/><path class="cls-1" d="M429,295.75c.22,4.45.43,8.63.64,12.88h-1.19c-.29-1-.54-2.07-.91-3.1-1.61-4.48-4.55-7.66-9.23-9a7.58,7.58,0,0,0-8.71,3.51,7.93,7.93,0,0,0,.9,9.46,17,17,0,0,0,5.55,3.84c2.4,1.13,4.84,2.19,7.25,3.32a20,20,0,0,1,7.59,5.72c5.55,7.14,3.73,20.61-8.95,23.31a20.57,20.57,0,0,1-11.75-1.24c-.76-.29-1.53-.6-2.31-.84a3.92,3.92,0,0,0-4.62,1.12c-.19.23-.65.25-1.07.4V328.84c.67-.26.93,0,1.12.64a28,28,0,0,0,4.87,10.29c2.11,2.6,4.61,4.55,8.07,5a8.91,8.91,0,0,0,10.4-9.8,10.08,10.08,0,0,0-4.32-7.74c-1.73-1.22-3.62-2.22-5.43-3.31-2.91-1.75-5.9-3.38-8.7-5.28a12.19,12.19,0,0,1-5.51-9.06,13.06,13.06,0,0,1,10.47-14.19,15.81,15.81,0,0,1,10,1.07c.41.2.83.36,1.25.52a2.62,2.62,0,0,0,3.22-.73c.26-.29.81-.33,1.41-.54" transform="translate(-133.27 -239.74)"/><path class="cls-1" d="M606.23,296.21h23.28v2a4.92,4.92,0,0,0-3.11.75,2.51,2.51,0,0,0-.89,2c0,.87.63,2.2,1.89,4,.4.57,1,1.48,1.78,2.7l3.51,5.62,4-5.62c2.6-3.57,3.89-5.82,3.89-6.75a2.4,2.4,0,0,0-.92-1.92,4.55,4.55,0,0,0-3-.78v-2h16.75v2a9,9,0,0,0-4.59,1.45q-2.65,1.84-7.24,8l-6.75,9,12.31,17.71q4.54,6.54,6.48,7.86a9.68,9.68,0,0,0,5,1.49v1.94H635.39v-1.94a6,6,0,0,0,3.79-1.08,2.38,2.38,0,0,0,1-2q0-1.25-3.46-6.27l-7.23-10.58-7.94,10.58c-2.45,3.28-3.67,5.22-3.67,5.84a3.09,3.09,0,0,0,1.21,2.35,5.85,5.85,0,0,0,3.65,1.16v1.94H606.61v-1.94a7.31,7.31,0,0,0,3.4-1.35q2.06-1.58,6.91-8l10.37-13.77L617.9,307q-4-5.83-6.19-7.32a9.55,9.55,0,0,0-5.48-1.48Z" transform="translate(-133.27 -239.74)"/><path class="cls-2" d="M250,300.89a65.44,65.44,0,0,1,.61,15.06,37.26,37.26,0,0,1-1.13,6.16c-.61,2.61-1.33,5.2-2,7.8,0,.14,0,.32-.13.4-1.54,1.37-1.43,3.42-2.14,5.14a19.73,19.73,0,0,0-.77,2.24,12.28,12.28,0,0,0-.26,1.61,2.49,2.49,0,0,1-.15.73c-.62,1.17-1.27,2.33-1.91,3.49a1.06,1.06,0,0,0-.14.68l.74-.38a4.4,4.4,0,0,0-.29.58,5.55,5.55,0,0,0-.13.71,7,7,0,0,0,.78.12.82.82,0,0,0,.4-.1,41.22,41.22,0,0,1,3.74-2c2-.86,3.35-2.54,4.93-3.92,0,0,.1,0,.23,0l-.83,1.42.21.17,5-4.78.08.07c-.46.55-.93,1.1-1.39,1.66l.25.27a5.63,5.63,0,0,0,1.09-.77c2-2.27,4-4.56,6-6.84.59-.68,1.23-1.32,1.83-2a18.08,18.08,0,0,0,1.47-1.7c1.41-2,2.78-4.12,4.19-6.23-.48,2.58-2.64,4.26-3.28,6.73l.8-.56a52.38,52.38,0,0,1-7.45,9.26c-.38.37-.8.72-1.16,1.12-.21.24-.82.41-.3.93a2.36,2.36,0,0,1-.43.54,59.15,59.15,0,0,1-10.7,7.47c-1.56.85-3.09,1.77-4.72,2.46-1.21.5-2.58.6-3.83,1a5.87,5.87,0,0,0-1.46,1.17c-.06,0-.08.18-.14.21-1.78.87-2.54,2.9-4.14,3.83-1.93,1.14-3.24,2.84-4.85,4.26a4.42,4.42,0,0,0-.56.73c.06.07.11.14.17.2l1.23-.71.1.14c-1.06.78-2.08,1.61-3.17,2.32A77.94,77.94,0,0,1,209.73,370a43.13,43.13,0,0,1-16.06,2.21c-8.52-.37-16.16-3.35-23.21-8a93.34,93.34,0,0,1-17.12-14.55c-.62-.66-1.22-1.34-1.79-2-.15-.19-.13-.51-.22-.77a2.47,2.47,0,0,0-.3-.66,42.22,42.22,0,0,0-4.32-5.55c-1.86-1.75-2.78-4-4-6.09a53.8,53.8,0,0,1-3.44-7,65.16,65.16,0,0,1-3.58-11,44.14,44.14,0,0,0-1-4.89c-1.84-5.7-1.55-11.54-1.15-17.37a31,31,0,0,1,.9-4.05c.14-.66.11-1.35.25-2s.42-1.47.64-2.2l.25,0,.18,1,.29.08q.82-2.28,1.64-4.56h.2c.12.54.22,1.07.38,1.59.06.22.21.56.36.58a1.08,1.08,0,0,0,.73-.25,14.53,14.53,0,0,0,1.08-1c.72.88.72.88,1.91-.2.13.69.25,1.35.37,2H143l.85-3.29.89,1.16c.22-.41.41-.79.62-1.16l.19.07c-.05.39-.1.77-.17,1.29,1.72-.86,1.22.73,1.64,1.41l.84-1c.76.66,1.36.41,1.94-.83.15.22.29.4.5.71a6.05,6.05,0,0,0,.6-.83c2.09-4.66,5.34-8.45,8.9-12a9.61,9.61,0,0,0,.7-.73,29.67,29.67,0,0,1,5.15-4.74c.31-.25.93-.49.22-1a76.56,76.56,0,0,1,10.62-5.83,58.69,58.69,0,0,1,11.12-3.68c1.5-.39,3.14-.26,4.7-.51a4.27,4.27,0,0,0,2.29-.88,41.59,41.59,0,0,1,9.25-6.42,64,64,0,0,1,15.27-6,36.33,36.33,0,0,1,10.59-1.21,34.53,34.53,0,0,1,4.27.6c1.91.3,3.85.52,5.74,1a47.49,47.49,0,0,1,14.41,5.57,33.42,33.42,0,0,1,7.07,5.52,2.47,2.47,0,0,1,.35.73,2.53,2.53,0,0,1-.69-.3,52,52,0,0,0-12.8-8.27A61.57,61.57,0,0,0,238,241.38a46.25,46.25,0,0,0-5.78-.84.65.65,0,0,0-.59.26,7.51,7.51,0,0,0,1.31.37,50.55,50.55,0,0,1,17.5,5.65,4.47,4.47,0,0,1,1.19.81c.2.2.38.7.27.87a.77.77,0,0,1-1.09.22c-2-1-4.05-2-6.15-2.85-1.7-.68-3.51-1.09-5.26-1.62l-1.56-.49a3.11,3.11,0,0,1,.18-.27,35,35,0,0,0-5.15-.9c-1.24-.05-2.43-.28-3.65-.4a30.51,30.51,0,0,0-5.4.14,24.1,24.1,0,0,0-3.23.68.78.78,0,0,1-.42,0c-1.28-.54-2.42.16-3.6.42a33.28,33.28,0,0,0-11.76,5.3c-.63.43-1.24.87-1.9,1.23s-1.24.33-1.66.72a14.37,14.37,0,0,0-2.34,2.89l3.76-1.67.08.07L201,253.4a4.16,4.16,0,0,0,1,.17,36.74,36.74,0,0,1,14,1,45.13,45.13,0,0,1,15.6,7.08c6,4.36,9,7.56,12.46,13.49a50.38,50.38,0,0,0-14.52-14.24c-6.08-3.93-17-7-19.4-6.17,1,.19,1.77.33,2.58.5,3,.61,6.08,1,8.63,2.63s5.46,2.71,7.77,4.62a74.75,74.75,0,0,1,7.77,7.54,48.13,48.13,0,0,1,9.82,17.59c1.22,3.66,2,7.46,3,11.22a5,5,0,0,1-.16,1.51,3.51,3.51,0,0,0,0,.56l.42,0m-77.49-27.08a9.71,9.71,0,0,1-.38.94c-.86,1.7-1.75,3.39-2.61,5.1a7.72,7.72,0,0,0-.54,1.33,3.13,3.13,0,0,0,0,.81l.22.05.57-.8.11.06-2.07,5.85c-.31-1.65.94-2.89.67-4.39a17.43,17.43,0,0,0-2.34,6.37c-.73-.05-.69.59-.79,1.07-.48,2.3-.88,4.61-1.4,6.89a41,41,0,0,0-.75,9.37c0,3,.41,6,.64,9.06.05.8.09,1.6.14,2.48l-1.27-2.1c-.26.43-.19,1.06-.4,1.17-.65.34-.38.79-.33,1.23s.09.66.13,1H162l-.48-.82-.3.08c.13.8.26,1.6.4,2.54l-.88-1.93-.91,1.13c.37,1,.79,2.12,1.22,3.25l-.12.05c-.64-1.53-1.27-3.05-1.91-4.57l-.37.12a3,3,0,0,0,.12.81c.31.76.66,1.5,1,2.24,1,2,1.91,4,2.88,6a2.23,2.23,0,0,0,.57.64c.47-.34.5.12.64.33s.37.64.57,1l3.21,5.13-.08,0L165,331.68l-.31.21q2.06,3.33,4.12,6.66a1.19,1.19,0,0,1-.42-.38c-2-3-4.12-6-6-9.13-1.05-1.7-1.79-3.59-2.7-5.38A3.23,3.23,0,0,0,159,323c-.19.25-.55.52-.53.75a5.53,5.53,0,0,0,.51,2.07c1.44,2.6,3,5.14,4.46,7.72s3.67,4.67,4.83,7.48c.35.83,1.31,1.39,1.93,2.12s1,1.29,1.47,1.95a9.15,9.15,0,0,0,.85,1.25,44.57,44.57,0,0,0,9.27,7.12c.32.18.8.37.87.64.19.81.87,1,1.43,1.3.84.48,1.69.93,2.55,1.36.53.26,1.08.47,1.77.76l-.23-.64c1.53.93,3.46.75,4.82,2.05a4.6,4.6,0,0,0,2.17.68,71.06,71.06,0,0,0,7.73,1.46c3.23.29,6.48.18,9.15-2.14a5.28,5.28,0,0,1,1-.54,11.9,11.9,0,0,0,2.33-1.37c2.3-2.14,4.5-4.38,6.74-6.58a.7.7,0,0,0,.15-.2c.2-.43.1-.72-.39-.81a18,18,0,0,1-1.92-.35c-1.48-.41-2.95-.88-4.43-1.33l.09-.28c1.21.35,2.43.7,3.63,1.07a1.1,1.1,0,0,0,1.4-.37c-.4-.28-.74-.75-1-.12a9.38,9.38,0,0,0-1.2-.73c-2.34-1-4.69-1.95-7-2.94a14.9,14.9,0,0,1-1.29-.75c1.77.5,3.36.85,4.87,1.4a35.89,35.89,0,0,0,7.83,2.14,1.34,1.34,0,0,0,1.36-.51c.22-.24.5-.63.74-.63.78,0,1.07-.48,1.34-1,1.45-2.78,2.95-5.54,4.29-8.38a58.41,58.41,0,0,0,3.8-12.12,62.31,62.31,0,0,0,1.25-6.92,51.53,51.53,0,0,0,0-5.42,2,2,0,0,1,.14-1,3.4,3.4,0,0,0,.22-2.63,24,24,0,0,1-.67-3.5,32.29,32.29,0,0,0-1.21-6.83c-1.93-7.56-6.09-14-10.68-20.1a32.7,32.7,0,0,0-6.15-5.82,40.7,40.7,0,0,0-17.11-8.09,33.47,33.47,0,0,0-5.47-.64,3,3,0,0,0-3.14,1.77,23.87,23.87,0,0,1-1.84,2.89l-.12-.08c.09-.36.19-.73.29-1.1l-.22-.09c-.21.28-.43.55-.62.85-2.87,4.64-4.36,9.79-5.51,15.06a12.1,12.1,0,0,0-.19,2.08,11.12,11.12,0,0,1,.07,1.4c-.25,1.62-.68,3.22-.82,4.85A51.86,51.86,0,0,0,184,309.76a12.64,12.64,0,0,1,.59,2.37,8.22,8.22,0,0,0,.62,3.36,10.32,10.32,0,0,1,.45,1.36c.42,1.16.76,2.36,1.28,3.47.61,1.31,1.38,2.55,2.08,3.81l-.17.17a4.28,4.28,0,0,1-.82-.69c-.7-1-1.35-2.09-2-3.13-.17-.25-.39-.47-.58-.7l-.22.14.9,2.5c-1,0-1.29-.65-1.53-1.31-.16-.44-.3-.9-1-.81,0,.33,0,.62,0,.91l-.19.16a8.63,8.63,0,0,1-.81-.66,9.74,9.74,0,0,1-.63-.78,21.18,21.18,0,0,1-2.42-3.05,12.64,12.64,0,0,1-1.18-3.69c-.48-2.61-.79-5.26-1.22-7.88a23.52,23.52,0,0,0-.62-2.33l-.36.08c-.28,2.19.44,4.34.38,6.57a1.56,1.56,0,0,1-.79-.69,5.89,5.89,0,0,1-.36-1.57c-.15-1.74-.21-3.5-.38-5.24a14.8,14.8,0,0,1-.47-2.27c.28-3.29.67-6.58,1-9.87.12-1,.27-2.08.42-3.28-1,.34-.88,1-1,1.59-.23.89-.45,1.78-.68,2.67a4.7,4.7,0,0,0-.21.82c-.15,1.63-.34,3.26-.41,4.9a50.9,50.9,0,0,0,.64,11.76c0,.2.3.36.46.54a.8.8,0,0,1,.18.27c.61,2.06.61,2.06.18,4.49-.48-2-.92-3.83-1.35-5.63l-.27,0v2.59a2,2,0,0,1-.21-.88c0-.33,0-.68-.06-1a67.39,67.39,0,0,1,.14-15.09c.33-3.81,1.95-7.38,2-11.23,0-.36.34-.84.2-1-.56-.83-.08-1.54.15-2.26A31.67,31.67,0,0,1,177,276c.29-.65.17-1.59,1.16-1.82.08,0,.08-.31.15-.46a6.24,6.24,0,0,1,.32-.65c.11.52.18.87.25,1.22l.23,0c.2-.36.3-.85.61-1.05.82-.54.27.67.74.66.05,0,.13,0,.15-.07.84-2,1.68-3.93,2.49-5.9.06-.14,0-.35-.07-.54-.2.06-.47.06-.58.19a10.09,10.09,0,0,0-.81,1.13l-.1-.05c.23-.53.47-1.06.8-1.77l-1,.68c.15-.45.27-.79.46-1.31a5.13,5.13,0,0,1-1.3.46,1.26,1.26,0,0,0-1.18.79c-.17.32-.38.63-.57.94,0,0-.08,0-.15,0v-.72a1.64,1.64,0,0,0-1.57.93c-.09.2-.24.46-.42.52-1,.33-1.26,1.3-1.8,2-.7.95-1.18,2.12-2.4,2.59a22.48,22.48,0,0,0,2.78-4.12c-1.21.42-4.1,4.45-4,5.62l1.22-1.53m-5.64,9.72c-.66.51-3.13,7.93-3,8.93.63-.35,3.27-8,3-8.93m69.53-11-.22.16,5.57,8.51L242,281a32.33,32.33,0,0,0-5.58-8.52m-60,11.54c.93-.49,2.16-4.61,1.75-5.7-1,1.83-1.16,3.71-1.75,5.7m1.8,68.48a3.33,3.33,0,0,0-.47-.65c-.82-.72-1.65-1.44-2.51-2.12-.17-.14-.48-.11-.73-.15.1.26.11.62.29.77.91.71,1.85,1.37,2.8,2,.11.08.29.06.62.12m-8.06-74.91c-1,.38-1.94,2.17-1.57,2.95l1.57-2.95m11.15,76.95-.21.39,1.56.86.22-.4-1.57-.85" transform="translate(-133.27 -239.74)"/><path class="cls-1" d="M234.71,247.28l4.19,1.18-.06.21-4.19-1.19.06-.2" transform="translate(-133.27 -239.74)"/><path class="cls-1" d="M165.32,264.92l-2.92,2.38-.13-.15,2.93-2.41.12.18" transform="translate(-133.27 -239.74)"/><path class="cls-1" d="M245.34,276.87l1.24,1.79-.28.18L245.16,277l.18-.11" transform="translate(-133.27 -239.74)"/><path class="cls-1" d="M172.47,285.72c-.16,1-.32,2.09-.49,3.14a58,58,0,0,0-1,12.33c.16,2.74.37,5.48.54,8.22a4.17,4.17,0,0,1,0,1c-.22-.44.09-1.12-.67-1.29-.07,0-.09-.36-.09-.55,0-3.88-.1-7.77.16-11.63.25-3.66.91-7.3,1.39-10.94a1.88,1.88,0,0,1,.12-.3l.13,0" transform="translate(-133.27 -239.74)"/><path class="cls-1" d="M164.67,302.45q.78-5.38,1.57-10.78l.25,0q-.83,5.39-1.66,10.76l-.16,0" transform="translate(-133.27 -239.74)"/><path class="cls-1" d="M164.88,304.15v8.93h-.11v-8.94h.11" transform="translate(-133.27 -239.74)"/><path class="cls-1" d="M208.75,342.87l-3.66-2.36.14-.22,3.69,2.32Z" transform="translate(-133.27 -239.74)"/><polygon class="cls-1" points="41.43 62.43 41.43 66.54 41.29 66.54 41.29 62.44 41.43 62.43"/><path class="cls-1" d="M175.73,275v2.9l-.16,0c.05-.91.1-1.82.16-2.88" transform="translate(-133.27 -239.74)"/><path class="cls-1" d="M173.59,276.29l-.33,1.8-.33-.06.36-1.8.3.06" transform="translate(-133.27 -239.74)"/><path class="cls-1" d="M174.16,278.48l.69-2.09.22.08c-.24.69-.47,1.39-.7,2.08l-.21-.07" transform="translate(-133.27 -239.74)"/></svg>