<svg id="Layer_1" data-name="Layer 1" xmlns="http://www.w3.org/2000/svg" xmlns:xlink="http://www.w3.org/1999/xlink" viewBox="0 0 403.13 208.44"><defs><style>.cls-1{fill:none;}.cls-2{clip-path:url(#clip-path);}.cls-3{fill:#fff;}.cls-4{fill:#414042;}.cls-5{fill:#6ba9d4;} svg { cursor: pointer; } /* whole rectangle */ </style><clipPath id="clip-path" transform="translate(-194.43 -201.65)"><rect class="cls-1" x="194.43" y="201.91" width="403.13" height="208.18"/></clipPath></defs><g class="cls-2"><rect class="cls-3" width="403.13" height="208.44"/></g><polygon class="cls-4" points="93.02 71.18 97.22 71.18 97.22 66.73 97.22 25.27 93.02 25.27 93.02 71.18"/><polygon class="cls-4" points="124.22 71.18 128.41 71.18 128.41 66.5 128.41 25.27 124.22 25.27 124.22 71.18"/><polygon class="cls-4" points="100.91 50.32 120.52 50.32 120.52 46.13 117.37 46.13 100.91 46.13 100.91 50.32"/><polygon class="cls-4" points="239.48 71.18 243.68 71.18 243.68 67.74 243.68 33.15 239.48 33.15 239.48 71.18"/><polygon class="cls-4" points="224.36 29.46 255.04 29.46 258.8 29.46 258.8 25.27 224.36 25.27 224.36 29.46"/><polygon class="cls-4" points="280.88 71.18 285.08 71.18 285.08 67.74 285.08 33.15 280.88 33.15 280.88 71.18"/><polygon class="cls-4" points="265.76 29.46 296.44 29.46 300.2 29.46 300.2 25.27 265.76 25.27 265.76 29.46"/><polygon class="cls-4" points="175.24 25.27 156.44 51.67 156.44 71.18 160.64 71.18 160.64 53.01 180.39 25.27 175.24 25.27"/><polygon class="cls-4" points="142.61 25.27 137.46 25.27 154.06 48.61 156.63 44.99 142.61 25.27"/><polygon class="cls-4" points="203.16 25.27 198.94 25.27 177.72 71.17 182.33 71.17 201.05 30.68 219.78 71.17 224.39 71.17 203.16 25.27"/><polygon class="cls-4" points="194.01 54.69 192.07 58.88 210.03 58.88 208.09 54.69 202.47 54.69 194.01 54.69"/><path class="cls-5" d="M280.81,323.64l-.29.28c-4.91,4.84-9.14,6.72-15.07,6.72-10,0-17.81-7.43-18.67-17.69h-4.22A23.84,23.84,0,0,0,249,328h-.05l16.71,15.72L282,328.29c.52-.46,1.84-1.74,1.84-1.74Z" transform="translate(-194.43 -201.65)"/><polygon class="cls-4" points="344.2 87.31 342.14 87.31 342.14 86.25 347.42 86.25 347.42 87.31 345.35 87.31 345.35 92.75 344.2 92.75 344.2 87.31"/><polygon class="cls-4" points="348.62 86.25 349.83 86.25 351.81 89.33 353.79 86.25 355.01 86.25 355.01 92.75 353.87 92.75 353.87 88.09 351.81 91.16 351.78 91.16 349.74 88.11 349.74 92.75 348.62 92.75 348.62 86.25"/><polygon class="cls-4" points="280.88 132.41 285.08 132.41 285.08 128.08 285.08 86.5 280.88 86.5 280.88 132.41"/><polygon class="cls-4" points="98.42 132.41 130.16 132.41 130.16 128.22 102.61 128.22 102.61 90.69 130.16 90.69 130.16 86.5 98.42 86.5 98.42 132.41"/><polygon class="cls-4" points="126.63 111.56 126.63 107.36 106.3 107.36 106.3 111.56 123.45 111.56 126.63 111.56"/><path class="cls-4" d="M514.25,291.57a20.09,20.09,0,0,1,15,6.14l.3.29,2.93-3-.32-.29c-4.79-4.4-9.65-7.32-17.8-7.32-12.17,0-22,9.4-22.88,21.88h4.21c.79-10.26,8.59-17.69,18.61-17.69" transform="translate(-194.43 -201.65)"/><path class="cls-4" d="M529.67,323.64l-.29.29c-4.9,4.83-9.13,6.71-15.07,6.71-10,0-17.81-7.42-18.67-17.69h-4.22c.82,12.69,10.37,21.88,22.76,21.88,8.91,0,14.2-4,18.2-8l.3-.31Z" transform="translate(-194.43 -201.65)"/><path class="cls-4" d="M265.38,291.57a20.09,20.09,0,0,1,14.95,6.14l.3.29,2.93-3-.32-.29c-4.79-4.4-9.65-7.32-17.8-7.32-12.17,0-22,9.39-22.88,21.88h4.21c.8-10.26,8.59-17.69,18.61-17.69" transform="translate(-194.43 -201.65)"/><polygon class="cls-4" points="204.85 132.41 209.05 132.41 209.05 128.97 209.05 94.39 204.85 94.39 204.85 132.41"/><polygon class="cls-4" points="189.73 90.69 220.42 90.69 224.17 90.69 224.17 86.5 189.73 86.5 189.73 90.69"/><rect class="cls-4" x="234.35" y="86.5" width="4.19" height="45.92"/><path class="cls-4" d="M464.46,329.77a4.4,4.4,0,0,1-3.24,1.23c-3.48,0-5.85-3.92-7.52-7.34,0,0-3.33-6.84-4.14-8.55a16.46,16.46,0,0,0,9.19-4.35,12.72,12.72,0,0,0,3.54-9,12.5,12.5,0,0,0-3.54-9c-2.94-3-7.55-4.67-13-4.67h-9.1v4.19h8.9c8,0,12.52,3.44,12.52,9.44s-4.56,9.45-12.52,9.45h-8.9v4.19h8.4l4.86,10.09c1.17,2.39,4.74,9.68,11.26,9.68a8.15,8.15,0,0,0,6.31-2.53Z" transform="translate(-194.43 -201.65)"/><polygon class="cls-4" points="141.24 132.41 145.43 132.41 145.43 98.75 141.24 93.2 141.24 132.41"/><polygon class="cls-4" points="179.77 132.41 179.77 86.5 175.57 86.5 175.58 125.46 146.11 86.5 140.86 86.5 175.57 132.41 179.77 132.41"/><path class="cls-5" d="M263.56,380.86c-6.85,0-11.09-5-11.09-11.26,0-6,4.39-11.31,10.94-11.31a11.52,11.52,0,0,1,8.14,2.9L270,363.06a9.29,9.29,0,0,0-6.64-2.5c-4.84,0-8.3,4.09-8.3,9,0,5.24,3.34,9.11,8.64,9.11a10.28,10.28,0,0,0,6.3-2.19V371h-6.64v-2.21h9v8.69A13.2,13.2,0,0,1,263.56,380.86Z" transform="translate(-194.43 -201.65)"/><path class="cls-5" d="M295.64,371.16c0,6.36-3.65,9.67-9.1,9.67s-9.07-3.31-9.07-9.48V358.66h2.46v12.53c0,4.71,2.49,7.36,6.67,7.36,4,0,6.58-2.43,6.58-7.2V358.66h2.46Z" transform="translate(-194.43 -201.65)"/><path class="cls-5" d="M321,380.48H318.3l-2.56-5.76H303.87l-2.59,5.76h-2.53l9.95-22H311Zm-11.13-19.1-5,11.12h9.95Z" transform="translate(-194.43 -201.65)"/><path class="cls-5" d="M330.64,380.48h-2.49V360.94h-7.33v-2.28H338v2.28h-7.33Z" transform="translate(-194.43 -201.65)"/><path class="cls-5" d="M358.29,360.91H345v7.45h11.91v2.24H345v7.64h13.47v2.24H342.52V358.66h15.77Z" transform="translate(-194.43 -201.65)"/><path class="cls-5" d="M373.82,374.5h-.13l-7.95-11.66v17.64h-2.4V358.66h2.5l7.94,11.91,8-11.91h2.5v21.82h-2.46V362.81Z" transform="translate(-194.43 -201.65)"/><path class="cls-5" d="M410.66,380.48H408l-2.56-5.76H393.58L391,380.48h-2.52l9.94-22h2.31Zm-11.13-19.1-5,11.12h9.95Z" transform="translate(-194.43 -201.65)"/><path class="cls-5" d="M414.9,358.66h2.46v19.55h12.28v2.27H414.9Z" transform="translate(-194.43 -201.65)"/><path class="cls-5" d="M454.45,380.48H451.8l-2.55-5.76H437.37l-2.59,5.76h-2.52l9.94-22h2.31Zm-11.12-19.1-5,11.12h9.94Z" transform="translate(-194.43 -201.65)"/><path class="cls-5" d="M478,380.86a11.29,11.29,0,0,1,.09-22.57,11.34,11.34,0,0,1,8.51,3.46l-1.68,1.81a9.48,9.48,0,0,0-6.86-3c-4.83,0-8.45,3.9-8.45,9s3.65,9,8.45,9c3,0,5-1.15,7-3.15l1.62,1.59A11.33,11.33,0,0,1,478,380.86Z" transform="translate(-194.43 -201.65)"/><path class="cls-5" d="M493.6,358.66v21.82h-2.46V358.66Z" transform="translate(-194.43 -201.65)"/><path class="cls-5" d="M508.19,380.48H505.7V360.94h-7.33v-2.28h17.15v2.28h-7.33Z" transform="translate(-194.43 -201.65)"/><path class="cls-5" d="M529.39,380.48h-2.5v-8.63l-9.07-13.19h3l7.36,10.91,7.42-10.91h2.87l-9.07,13.16Z" transform="translate(-194.43 -201.65)"/></svg>