<svg xmlns="http://www.w3.org/2000/svg" viewBox="0 0 404.05 75.41"><defs><style>.cls-1{isolation:isolate;}.cls-2{fill:#262424;mix-blend-mode:multiply;}.cls-3{fill:#73a7db;} svg { cursor: pointer; } /* whole rectangle */ </style></defs><g class="cls-1"><g id="Layer_1" data-name="Layer 1"><path class="cls-2" d="M216.36,284.25c10.89-1.73,20.42,3.78,24.89,14.15a4.93,4.93,0,0,0,3.39,2.53c3.72.33,7.49.12,11.62.12-2.13-18.8-19.35-31.88-39.2-30.2C196,272.62,181.55,289,183,309.43c1.51,21.2,17.2,35.56,38,34.74,19.08-.75,35.19-14.5,34.89-30.08-3.61,0-7.23.15-10.84,0-2.37-.13-3.31.82-4.18,3-4.73,11.62-16.8,16.89-28.59,12.7-10.07-3.59-15.64-13.44-14.49-25.6A22,22,0,0,1,216.36,284.25Z" transform="translate(-182.91 -270.7)"/><path class="cls-2" d="M403.33,301l-2.25-2.11c-11.59-11.12-29.18-7.84-35.87,6.79a31,31,0,0,0-1.63,21.68c5,18,23.86,23.49,37.72,11,.37-.33.82-.57,1.61-1.12.16,2.59.29,4.72.42,7h13.09V273.33H403.33ZM389.47,333.5c-7.71-.13-13.25-6.32-13.23-14.75,0-8.72,5.61-14.73,13.65-14.66,7.74.07,13.31,6.19,13.3,14.64S397.24,333.64,389.47,333.5Z" transform="translate(-182.91 -270.7)"/><path class="cls-2" d="M335.27,292.7c-15.87-3.45-30.36,5.39-33.28,20.3s6,28.35,20.8,31.27c14.35,2.83,29.53-5.77,31.69-18.36-1.7,0-3.34.06-5,0-4.29-.17-8-.21-11.23,4.08-3.49,4.56-9.26,4.82-14.65,2.84-4.55-1.68-7.42-5-8.66-10.15H355.2C358.28,309.18,349.21,295.73,335.27,292.7Zm-19,19.5c1-5.25,5.76-8.85,11.83-9.17,6.65-.36,12.24,3.2,14.24,9.17Z" transform="translate(-182.91 -270.7)"/><path class="cls-2" d="M559.56,293.3c-15.87,0-27.16,11.18-27.07,26.73.08,15.13,11.57,26.1,27.33,26.08S586.91,335,587,319.78C587,304.42,575.45,293.26,559.56,293.3Zm-.24,41.1c-7.66-.16-13.3-6.51-13.18-14.84.13-8.65,5.9-14.7,13.88-14.55,7.75.15,13.19,6.29,13.13,14.8S567.25,334.57,559.32,334.4Z" transform="translate(-182.91 -270.7)"/><path class="cls-2" d="M482.32,333.31c-9-4.23-14.1-10.77-15.57-20.29-1.87-12.14,4.25-23.63,14.77-27.06,11.25-3.68,23.23,1,27.57,11.91a3.75,3.75,0,0,0,2.72,1.87c4,.21,8.05.08,12.85.08a81.67,81.67,0,0,0-2.72-7.82c-6.35-13.48-21.67-21.36-37.65-19.51-16.27,1.9-28.45,12.72-31.53,28-3.45,17.07,5,30.11,21.27,32.72C476.73,333.68,479.55,333.31,482.32,333.31Z" transform="translate(-182.91 -270.7)"/><path class="cls-2" d="M279.71,302.65a59.49,59.49,0,0,0-.09-7.29c-.13-.94-1.14-2.44-1.83-2.49-3.7-.25-7.43-.12-11.48-.12v50.74h13.08c0-7.57-.08-14.8,0-22,.14-10.31,4.74-15.33,14.94-16.57,1.07-.13,2.12-.39,3.25-.61V291.45C289.36,291.05,284.43,295.84,279.71,302.65Z" transform="translate(-182.91 -270.7)"/><path class="cls-2" d="M428.83,344.31h13V293.85h-13Z" transform="translate(-182.91 -270.7)"/><path class="cls-2" d="M435.68,272.11c-5,0-8.17,3-8.08,7.55.09,4.33,3.3,7.21,8,7.21,4.95,0,8.15-3,8.06-7.58C443.6,274.92,440.5,272.14,435.68,272.11Z" transform="translate(-182.91 -270.7)"/><path class="cls-3" d="M488,304.59V317h21.6s-6.43,16.33-18.16,19.55-27.81,0-27.81,0,23.27,18.38,48.5.59v4.92h12.65V304.59H488Z" transform="translate(-182.91 -270.7)"/></g></g></svg>