<svg xmlns="http://www.w3.org/2000/svg" viewBox="0 0 373.41 353.75"><defs><style>.cls-1{fill:none;}.cls-2{fill:#e1251b;}.cls-2,.cls-4{fill-rule:evenodd;}.cls-3,.cls-4{fill:#221f20;} svg { cursor: pointer; } /* whole rectangle */ </style></defs><g id="Capa_2" data-name="Capa 2"><g id="Layer_1" data-name="Layer 1"><rect class="cls-1" width="373.41" height="353.75"/><path id="Logo" class="cls-2" d="M186.7,129.54c19.41,0,95.72,1.34,106.78-7.68.78-.65,1.18-.91,2.87-.21s5.48,2.85,6.18,3.85c.92,1.3-.23,1.73-.74,1.93-6.35,2.53-24.23,5-115.09,5S78,130,71.62,127.43c-.51-.2-1.66-.63-.73-1.93.7-1,4.58-3.2,6.17-3.85s2.08-.44,2.86.21C91,130.88,167.31,129.54,186.7,129.54ZM218,37.26C200,36,198.85,47.08,209.39,49.67c3.46.87,56.73,16.13,73.77,45.11,12.8,21.79-3,27-13.62,28.39-9.77,1.27-57.29,2.46-82.84,2.46s-73.06-1.19-82.84-2.46c-10.65-1.36-26.42-6.6-13.61-28.39,17-29,70.33-44.24,73.78-45.11,10.55-2.59,9.37-13.68-8.6-12.41-70.62,5-128.12,54.29-128.12,102.46s57.5,97.43,128.12,102.45c18,1.28,19.15-9.79,8.6-12.4-3.45-.89-56.73-16.14-73.78-45.1-12.81-21.82,3-27,13.61-28.42,9.78-1.24,57.29-2.44,82.84-2.44s73.07,1.2,82.84,2.44c10.65,1.38,26.42,6.6,13.62,28.42-17,29-70.31,44.21-73.77,45.1-10.54,2.61-9.37,13.68,8.58,12.4,70.62-5,128.13-54.28,128.13-102.45S288.59,42.29,218,37.26Zm120.68,106c-.85,0-1.33-.69-1.62-5.71-.69-12.14-9.26-34-21.58-45.73-1.57-1.52-3.82-1.41-1.68,1.66,3.28,4.71,15.33,22.08,15.31,44.09-.05,43.81-42,83.57-108.14,96.37-5.32,1-6.3-.56-.7-2,27.23-7,76.47-23.73,95.15-66.33,10.5-24-6.77-25.48-13.6-26.07-17-1.43-102.94,0-115.08,0s-98.07-1.06-115.08.44c-6.83.61-24.09,2.2-13.5,26.11,18.84,42.51,68.17,59,95.4,66,5.62,1.44,4.64,3-.7,2-66.23-12.55-108.27-52.15-108.49-96-.12-22,11.87-39.43,15.12-44.14,2.14-3.08-.1-3.17-1.67-1.67C45.52,104.09,37,126,36.38,138.12c-.27,5-.76,5.72-1.6,5.72s-1.17-2.93-1.06-5.72c2.29-55.53,69-92.7,118.19-97.38,6.72-.63,6.31,1.48,2.51,2.38-8.37,2-67.8,14.75-92.36,58.1-12.4,21.88-8.69,30,11.72,31.95,5,.47,37.36,1.07,112.92,1.31s107.86-1.26,112.91-1.76c20.42-2,24.09-10.16,11.6-32C286.49,57.48,227,44.91,218.63,43c-3.8-.89-4.22-3,2.5-2.4C270.36,45.09,337.19,82,339.69,137.53,339.82,140.31,339.55,143.24,338.65,143.24Z"/><g id="Hino"><rect class="cls-3" x="135.66" y="278.11" width="19.31" height="36.11" rx="0.52"/><path class="cls-4" d="M218.19,278.11h16.9a.52.52,0,0,1,.52.52V313.7a.52.52,0,0,1-.52.52H217.34a.52.52,0,0,1-.52-.52,5.52,5.52,0,0,0-1.6-3.65A56,56,0,0,0,206,303.2a85.1,85.1,0,0,0-9.75-5.42c-2.94-1.33-6.3-2-6.3,3.1V313.7a.52.52,0,0,1-.52.52H172.17a.52.52,0,0,1-.52-.52V278.63a.52.52,0,0,1,.52-.52h17.22a23.05,23.05,0,0,1,5.25,1.77c4,1.76,15.15,8.23,17.53,9.62,3.64,2.12,5.5-.39,5.5-1.93v-8.94A.52.52,0,0,1,218.19,278.11Z"/><path class="cls-4" d="M100.71,278.11h17.74a.52.52,0,0,1,.53.52V313.7a.52.52,0,0,1-.53.52H100.71a.52.52,0,0,1-.52-.52v-6.38a4.83,4.83,0,0,0-4.83-4.83H80.21a4.84,4.84,0,0,0-4.83,4.83v6.38a.52.52,0,0,1-.52.52H57.12a.52.52,0,0,1-.52-.52V278.63a.52.52,0,0,1,.52-.52H74.86a.52.52,0,0,1,.52.52V285a4.83,4.83,0,0,0,4.83,4.83H95.36a4.83,4.83,0,0,0,4.83-4.83v-6.38A.52.52,0,0,1,100.71,278.11Z"/><path class="cls-4" d="M283.64,316.59c-10.08,0-24.35-.36-29.74-5.72-3.16-3.14-3.43-10.32-3.43-14.7s.27-11.56,3.42-14.7c5.39-5.37,19.67-5.73,29.75-5.73s24.35.36,29.74,5.73c3.15,3.14,3.43,10.32,3.43,14.7s-.27,11.56-3.43,14.7C308,316.23,293.72,316.59,283.64,316.59Zm-15-20.42c0,2.32.27,6.62,1.7,8.05,2.05,2,5.86,2,13.34,2s11.29.08,13.34-2c1.43-1.43,1.7-5.73,1.7-8.05s-.27-6.63-1.7-8.06c-2.05-2.05-5.86-2-13.34-2s-11.29-.09-13.34,2C268.87,289.54,268.6,293.84,268.6,296.17Z"/></g></g></g></svg>